<svg width="500" height="500" viewBox="0 0 500 500" fill="none" xmlns="http://www.w3.org/2000/svg">
<g clip-path="url(#clip0_1005_55)">
<rect width="500" height="500" rx="50" fill="#8145FD"/>
<path d="M160.278 156.264C144.442 156.264 132.137 162.359 123.364 174.55C114.591 186.627 110.205 207.704 110.205 237.782C110.205 295.432 126.099 324.257 157.886 324.257C170.304 324.257 181.47 322.263 191.382 318.275V278.798C180.558 275.152 173.21 270.823 169.336 265.81L172.925 238.124H254.785L258.374 265.81C255.298 269.569 249.772 273.158 241.797 276.576V341.347C230.632 349.55 218.327 355.36 204.883 358.778C191.439 362.082 174.691 363.734 154.639 363.734C121.257 363.734 96.7611 354.278 81.1523 335.365C65.5436 316.339 57.7393 285.406 57.7393 242.567C57.7393 199.729 67.0247 168.056 85.5957 147.548C104.281 126.926 129.744 116.615 161.987 116.615C194.344 116.615 220.719 124.021 241.113 138.832V146.693C241.113 149.314 240.715 153.358 239.917 158.827C239.233 164.182 238.208 169.822 236.841 175.746C235.474 181.557 233.765 186.513 231.714 190.614H199.414C195.882 183.778 193.547 174.094 192.407 161.562C182.495 158.03 171.785 156.264 160.278 156.264ZM382.959 157.631C374.984 155.58 366.724 154.555 358.179 154.555C349.52 154.555 342.57 156.662 337.329 160.878C331.974 165.207 329.297 171.303 329.297 179.164C329.297 187.025 331.291 193.178 335.278 197.621C339.266 201.951 347.07 205.767 358.691 209.071L389.966 218.129C406.714 223.028 420.044 230.718 429.956 241.2C439.868 251.568 444.824 266.778 444.824 286.83C444.824 302.667 440.894 316.339 433.032 327.846C425.171 339.353 414.461 348.24 400.903 354.506C387.459 360.658 372.249 363.734 355.273 363.734C341.26 363.734 326.847 361.968 312.036 358.437C297.225 354.791 284.92 349.721 275.122 343.227V335.023C275.122 332.403 275.464 328.415 276.147 323.061C276.945 317.706 278.027 312.123 279.395 306.312C280.876 300.388 282.585 295.375 284.521 291.273H317.847C321.606 298.679 323.828 308.363 324.512 320.326C332.373 323.858 341.886 325.624 353.052 325.624C363.875 325.624 372.762 323.061 379.712 317.934C386.776 312.807 390.308 305.458 390.308 295.888C390.308 291.33 389.966 287.628 389.282 284.779C388.599 281.817 386.434 278.684 382.788 275.38C379.142 272.076 373.958 269.341 367.236 267.177L331.177 256.752C294.491 246.384 276.147 223.028 276.147 186.684C276.147 172.556 279.622 160.251 286.572 149.77C293.636 139.288 303.434 131.142 315.967 125.331C328.499 119.521 343.083 116.615 359.717 116.615C384.668 116.615 408.993 122.255 432.69 133.534V141.566C432.69 144.187 432.292 148.231 431.494 153.7C430.811 159.055 429.728 164.638 428.247 170.448C426.88 176.259 425.171 181.215 423.12 185.316H389.966C385.978 179.62 383.643 170.391 382.959 157.631Z" fill="white"/>
</g>
<defs>
<clipPath id="clip0_1005_55">
<rect width="500" height="500" rx="50" fill="white"/>
</clipPath>
</defs>
</svg>
